# xmcd
#
# Track frame offsets:
#	150
#	10181
#	30211
#	51039
#	66990
#	79250
#	97017
#	114253
#	121686
#	134838
#	145756
#	161707
#	176410
#
# Disc length: 2508 seconds
#
# Revision: 1
# Processed by: cddbd v1.5.1PL2 Copyright (c) Steve Scherf et al.
# Submitted via: EasyCDDAExtractor 8.2.2.1
#
DISCID=a709ca0d
DTITLE=Long Distance Call Blues - Mississippi Moonlight
DYEAR=2005
DGENRE=Blues
TTITLE0=Whitelies
TTITLE1=Mississippi Moonlight
TTITLE2=Ellis Island
TTITLE3=Train To Greenville
TTITLE4=Song For A Homely Man
TTITLE5=Barrelhouse Blues
TTITLE6=Losing Game
TTITLE7=Slide Raw
TTITLE8=Rainy Night Blues
TTITLE9=Driving South
TTITLE10=Driving South (alt)
TTITLE11=Blues In G
TTITLE12=Guitar Strain
EXTD=http://ldcb.8m.com
EXTT0=
EXTT1=
EXTT2=
EXTT3=
EXTT4=
EXTT5=
EXTT6=
EXTT7=
EXTT8=
EXTT9=
EXTT10=
EXTT11=
EXTT12=
PLAYORDER=
